<svg xmlns="http://www.w3.org/2000/svg" version="1.1" xmlns:xlink="http://www.w3.org/1999/xlink" xmlns:svgjs="http://svgjs.dev/svgjs" viewBox="0 0 1920 1080" style="overflow: hidden; height: 85vh;" class="overflow-hidden rounded-md drop-shadow-lg transition duration-300"><rect width="1920" height="1080" fill="#ded7ff"/><g clip-path="url(&quot;#SvgjsClipPath1597&quot;)"><g transform="matrix(0.48601100100180433,1.0422539550921472,-1.0422539550921472,0.48601100100180433,1040.5056342437338,-691.0906543923725)"><path d="M0,-1080C-10.041877967825947,-993.0540233980247,-69.6367955613257,-734.6823246943814,-60.25126780695568,-558.3241403881481C-50.865740052585664,-381.9659560819148,44.23084621327628,-198.84145918969,56.313166526220115,-21.850894162600028C68.39548683916395,155.13967086448991,26.930770277970204,313.84814192131785,12.242654070707346,503.61924977439173C-2.445462136555511,693.3903576274656,-26.506102742671143,921.2965400611553,-31.815530717357028,1116.7757529558435C-37.12495869204291,1312.2549658505316,-24.916502230300804,1502.623819301828,-19.613913777407966,1676.4945271425208C-14.311325324515128,1850.3652349832137,-3.2689856295679944,2079.4157545237535,0,2160L 1920 2160 L 1920 -1080 Z" fill="url(&quot;#SvgjsLinearGradient1593&quot;)"/><path d="M480,-1080C472.4345633261205,-991.350998395327,438.6912359063807,-707.2392987085033,434.60737995672287,-548.1059903719618C430.523524007065,-388.97268203542023,441.020451630846,-262.14532253949005,455.49686430205304,-125.20014998075115C469.97327697326006,11.745022577987783,527.9737231773794,133.11378501698223,521.465855983965,273.5650449804719C514.9579887905505,414.0163049439616,413.1562441342468,560.4587124665934,416.4496611415664,717.5074098001868C419.74307814888607,874.5561071337802,530.6112881999105,1061.370388936614,541.2263580278827,1215.857228982032C551.8414278558549,1370.34406902745,490.34447311404693,1487.0713215696992,480.14008010939983,1644.4284500726937C469.93568710475273,1801.7855785756883,480.0233466849,2074.071408345449,480,2160L 1920 2160 L 1920 -1080 Z" fill="url(&quot;#SvgjsLinearGradient1594&quot;)"/><path d="M960,-1080C958.0917685091564,-1009.7621981547611,958.2545589715232,-799.2447513012447,948.5506110549381,-658.5731889285669C938.846663138353,-517.901626555889,902.3746507398013,-373.170925734099,901.7763125004892,-235.9706257639331C901.1779742611772,-98.77032579376717,935.3243313674174,46.54191724069882,944.9605816190656,164.62861089242864C954.5968318707138,282.71530454415847,947.8630970812959,345.21489236241786,959.5938140103783,472.54953614644575C971.3245309394607,599.8841799304737,1021.2233483803294,792.4651501706753,1015.3448831935602,928.6364735965959C1009.4664180067911,1064.8077970225165,932.2437057113617,1141.54052066917,924.3230228897635,1289.5774767019695C916.4023400681652,1437.614432734769,961.874623412265,1671.7877892437205,967.8207862639711,1816.8582097933922C973.7669491156771,1961.928630343064,961.3034643773285,2102.809701632232,960,2160L 1920 2160 L 1920 -1080 Z" fill="url(&quot;#SvgjsLinearGradient1595&quot;)"/><path d="M1440,-1080C1449.5726694136856,-999.5257567579542,1486.8651138036653,-747.6491764721511,1497.4360164821142,-597.1545405477257C1508.006919160563,-446.65990462330024,1523.8219549375947,-339.0986479520235,1503.425416070694,-177.03218445344712C1483.0288772037932,-14.965720954870704,1392.9702653682166,215.04012053240356,1375.0567832807092,375.2442404437328C1357.1433011932018,535.448360355062,1395.7777093722511,638.7635969843394,1395.9445235456499,784.1925350145282C1396.1113377190486,929.6214730447169,1357.6132885826707,1097.4053415155126,1376.0576683211011,1247.8178686248655C1394.5020480595315,1398.2303957342183,1495.9537466964157,1534.6373424414564,1506.610801976232,1686.6676976706456C1517.2678572560485,1838.6980528998347,1451.101800329372,2081.1112829451076,1440,2160L 1920 2160 L 1920 -1080 Z" fill="url(&quot;#SvgjsLinearGradient1596&quot;)"/></g></g><defs><linearGradient x1="0.1" y1="0" x2="0" y2="1" id="SvgjsLinearGradient1593"><stop stop-color="#ded7ff" offset="0"/><stop stop-color="#d7d7ff" offset="0"/></linearGradient><linearGradient x1="0.1" y1="0" x2="0" y2="1" id="SvgjsLinearGradient1594"><stop stop-color="#ece8ff" offset="0"/><stop stop-color="#e8e8ff" offset="0.25"/></linearGradient><linearGradient x1="0.1" y1="0" x2="0" y2="1" id="SvgjsLinearGradient1595"><stop stop-color="#f9f8ff" offset="0"/><stop stop-color="#f8f8ff" offset="0.5"/></linearGradient><linearGradient x1="0.1" y1="0" x2="0" y2="1" id="SvgjsLinearGradient1596"><stop stop-color="#ffffff" offset="0"/><stop stop-color="#ffffff" offset="0.75"/></linearGradient><clipPath id="SvgjsClipPath1597"><rect width="1920" height="1080"/></clipPath></defs></svg>