<svg xmlns="http://www.w3.org/2000/svg" version="1.1" xmlns:xlink="http://www.w3.org/1999/xlink" xmlns:svgjs="http://svgjs.dev/svgjs" viewBox="0 0 1920 1080" style="overflow: hidden; height: 85vh;" class="overflow-hidden rounded-md drop-shadow-lg transition duration-300"><rect width="1920" height="1080" fill="#5e34b6"/><g clip-path="url(&quot;#SvgjsClipPath2703&quot;)"><g transform="matrix(0.4677471395371702,1.050577276288991,-1.050577276288991,0.4677471395371702,1064.6728405353053,-694.2903102996006)"><path d="M0,-1080C-8.51733339265928,-1014.4378727041649,-51.67967207246771,-823.88144469365,-51.10400035595568,-686.627236224989C-50.52832863944364,-549.373027756328,-14.607932094874535,-398.3123361690889,3.4540302990722154,-256.4747491880343C21.515992693018966,-114.63716220697975,57.439936127310936,41.811559484113175,57.267774007724825,164.39828566133843C57.09561188813871,286.9850118385637,6.005524342843636,350.4341551261464,2.42105758155553,479.0456078753172C-1.1634091797325752,607.657060624488,43.59237994592503,778.9136095683912,35.76097343999619,936.0670021563634C27.929566934067356,1093.2203947443356,-40.88216570821634,1284.460941483899,-44.567381454017486,1421.9659634031505C-48.25259719981863,1559.470985322402,6.221782056186424,1638.0914609057304,13.649678965189338,1761.097133671872C21.077575874192252,1884.1028064380134,2.274946494198223,2093.516188945312,0,2160L 1920 2160 L 1920 -1080 Z" fill="url(&quot;#SvgjsLinearGradient2699&quot;)"/><path d="M480,-1080C483.65083252987534,-982.7327424629835,512.9753255737429,-718.3357690203878,501.90499517925196,-496.39645477790134C490.834664784761,-274.45714053541485,410.56705164249206,14.154245285384661,413.5780176330543,251.63588545491922C416.5889836236165,489.1175256244538,516.3574304606218,717.4813761683108,519.9707911226253,928.4933862393061C523.5841517846288,1139.5053963103014,441.919980125513,1312.4568435874417,435.25818160507544,1517.7079458808907C428.59638308463786,1722.9590481743398,472.54303026751256,2052.9513243134816,480,2160L 1920 2160 L 1920 -1080 Z" fill="url(&quot;#SvgjsLinearGradient2700&quot;)"/><path d="M960,-1080C956.2573549116267,-982.150135155069,949.5085308951934,-683.1922607221022,937.5441294697605,-492.9008109304142C925.5797280443276,-302.6093611387262,883.8283018559292,-106.47109282292081,888.2135914474022,61.74869875012797C892.5988810388752,229.96849032317675,963.0575043415947,340.6964285827338,963.8558670185986,516.4179385078785C964.6542296956025,692.1394484330232,901.1572325460779,939.7644137183844,893.0037675094255,1116.077758300996C884.8503024727731,1292.3911028836078,903.7690380502551,1400.3109657203813,914.9350767986841,1574.2980060035486C926.1011155471132,1748.285046286716,952.4891794664474,2062.3830010005913,960,2160L 1920 2160 L 1920 -1080 Z" fill="url(&quot;#SvgjsLinearGradient2701&quot;)"/><path d="M1440,-1080C1439.4316446961936,-1002.8681728950248,1427.0452846885617,-780.247458236859,1436.5898681771614,-617.2090373701493C1446.1344516657612,-454.17061650343965,1501.9299474412214,-250.43055541696972,1497.267500931598,-101.76947479974223C1492.6050544219747,46.89160581748527,1420.0834703699393,141.13083672159175,1408.6151891194215,274.75744633321557C1397.1469078689038,408.38405594483936,1429.8539543458087,543.2293671183917,1428.457813428492,699.9901828700007C1427.0616725111754,856.7509986216097,1393.3094888945382,1044.8109138255154,1400.238343615521,1215.3223408428696C1407.1671983365038,1385.8337678602238,1463.4039990236422,1565.6124684479369,1470.0309417543888,1723.0587449741254C1476.6578844851354,1880.505021500314,1445.0051569590648,2087.1764574956874,1440,2160L 1920 2160 L 1920 -1080 Z" fill="url(&quot;#SvgjsLinearGradient2702&quot;)"/></g></g><defs><linearGradient x1="0.1" y1="0" x2="0" y2="1" id="SvgjsLinearGradient2699"><stop stop-color="#5e34b6" offset="0"/><stop stop-color="#4834b6" offset="0"/></linearGradient><linearGradient x1="0.1" y1="0" x2="0" y2="1" id="SvgjsLinearGradient2700"><stop stop-color="#4e2b97" offset="0"/><stop stop-color="#3c2b97" offset="0.25"/></linearGradient><linearGradient x1="0.1" y1="0" x2="0" y2="1" id="SvgjsLinearGradient2701"><stop stop-color="#3e2278" offset="0"/><stop stop-color="#302278" offset="0.5"/></linearGradient><linearGradient x1="0.1" y1="0" x2="0" y2="1" id="SvgjsLinearGradient2702"><stop stop-color="#2e1a59" offset="0"/><stop stop-color="#231a59" offset="0.75"/></linearGradient><clipPath id="SvgjsClipPath2703"><rect width="1920" height="1080"/></clipPath></defs></svg>